<?xml version="1.0" encoding="UTF-8"?>
<!DOCTYPE svg PUBLIC "-//W3C//DTD SVG 1.1//EN" "http://www.w3.org/Graphics/SVG/1.1/DTD/svg11.dtd">
<svg xmlns="http://www.w3.org/2000/svg" version="1.1" width="240px" height="217px" style="shape-rendering:geometricPrecision; text-rendering:geometricPrecision; image-rendering:optimizeQuality; fill-rule:evenodd; clip-rule:evenodd" xmlns:xlink="http://www.w3.org/1999/xlink">
<g><path style="opacity:0.914" fill="#153653" d="M 112.5,24.5 C 114.911,24.1367 116.411,25.1367 117,27.5C 117.483,26.552 117.649,25.552 117.5,24.5C 118.833,24.5 120.167,24.5 121.5,24.5C 121.343,25.8734 121.51,27.2068 122,28.5C 124.585,23.1859 126.585,23.5192 128,29.5C 128.494,27.8659 128.66,26.1992 128.5,24.5C 130.827,24.6646 132.993,25.3313 135,26.5C 135.333,26.1667 135.667,25.8333 136,25.5C 137.044,26.6226 137.71,27.9559 138,29.5C 139.049,27.8934 140.549,27.2267 142.5,27.5C 142.343,28.8734 142.51,30.2068 143,31.5C 145.089,27.5397 147.089,27.5397 149,31.5C 149.423,30.0439 150.256,29.5439 151.5,30C 152.212,31.425 152.379,32.925 152,34.5C 153.396,32.4732 155.062,32.1398 157,33.5C 157.667,35.8333 157.667,38.1667 157,40.5C 156.586,40.9574 156.086,41.2907 155.5,41.5C 154.585,39.0197 153.085,38.3531 151,39.5C 148,39.1667 146.333,37.5 146,34.5C 143.506,37.1755 141.34,36.8422 139.5,33.5C 136.054,35.1791 133.221,34.5124 131,31.5C 128.957,33.967 126.79,33.967 124.5,31.5C 120.509,31.8087 116.842,32.142 113.5,32.5C 112.5,32.1667 111.833,31.5 111.5,30.5C 112.348,28.5914 112.682,26.5914 112.5,24.5 Z"/></g>
<g><path style="opacity:0.831" fill="#12344d" d="M 104.5,25.5 C 106.951,27.1226 108.951,29.2893 110.5,32C 109.213,33.7859 107.713,33.9526 106,32.5C 104.413,33.6699 102.747,34.6699 101,35.5C 99.456,32.7364 98.2893,32.9031 97.5,36C 96.5509,36.6172 95.7175,36.4506 95,35.5C 93.2019,37.8367 91.0353,38.5033 88.5,37.5C 87.4206,39.543 85.754,40.8763 83.5,41.5C 75.9992,35.8116 76.9992,32.645 86.5,32C 87.5955,30.3247 89.0955,29.158 91,28.5C 93.2173,28.0631 95.5506,28.0631 98,28.5C 100.071,25.5845 101.405,25.9178 102,29.5C 103.095,28.3066 103.928,26.9733 104.5,25.5 Z M 82.5,36.5 C 83.4971,35.2875 84.4971,35.4542 85.5,37C 84.4232,37.4696 83.4232,37.3029 82.5,36.5 Z M 90.5,31.5 C 92.8519,32.5426 93.0185,33.8759 91,35.5C 89.2317,34.3181 89.0651,32.9848 90.5,31.5 Z"/></g>
<g><path style="opacity:1" fill="#153d66" d="M 131.5,76.5 C 125.833,76.5 120.167,76.5 114.5,76.5C 113.009,82.4635 111.509,88.4635 110,94.5C 109.617,95.056 109.117,95.3893 108.5,95.5C 107.03,89.0935 105.363,82.7602 103.5,76.5C 98.1667,76.5 92.8333,76.5 87.5,76.5C 87.7852,78.288 87.4519,79.9547 86.5,81.5C 82.5883,78.7062 78.255,77.3728 73.5,77.5C 68.0247,76.5111 62.358,76.1778 56.5,76.5C 56.5,88.5 56.5,100.5 56.5,112.5C 47.5282,114.888 43.1949,111.221 43.5,101.5C 46.1097,83.4454 54.1097,68.2787 67.5,56C 70.7916,52.8623 74.4582,50.3623 78.5,48.5C 81.8771,48.0614 85.0438,47.0614 88,45.5C 89.3333,46.1667 90.6667,46.8333 92,47.5C 93.5325,46.3047 95.0325,46.3047 96.5,47.5C 96.8333,47.3333 97.1667,47.1667 97.5,47C 96.6721,46.0853 95.6721,45.4186 94.5,45C 94.8333,44.6667 95.1667,44.3333 95.5,44C 100.612,42.649 105.612,40.9824 110.5,39C 118.167,38.3333 125.833,38.3333 133.5,39C 134.849,39.7724 135.682,40.9391 136,42.5C 138.709,41.803 141.376,41.4697 144,41.5C 144.749,42.635 144.583,43.635 143.5,44.5C 141.775,45.0149 140.108,45.6816 138.5,46.5C 140.954,47.6034 143.287,47.27 145.5,45.5C 149.674,47.0621 154.007,47.8955 158.5,48C 161.04,49.0404 162.707,50.8737 163.5,53.5C 168.974,54.6175 168.808,56.2841 163,58.5C 162.517,59.448 162.351,60.448 162.5,61.5C 165.292,61.5479 167.125,60.2146 168,57.5C 170.164,59.1482 172.331,60.8148 174.5,62.5C 170.746,68.1507 166.246,68.8173 161,64.5C 156.289,66.5603 151.456,66.8936 146.5,65.5C 145.692,65.8076 145.025,66.3076 144.5,67C 148.307,66.992 151.307,68.492 153.5,71.5C 153.291,72.086 152.957,72.586 152.5,73C 148.961,73.2819 145.461,73.7819 142,74.5C 139.98,73.9681 139.147,72.6348 139.5,70.5C 136.155,70.3256 134.988,71.659 136,74.5C 134.89,76.0368 133.39,76.7035 131.5,76.5 Z"/></g>
<g><path style="opacity:0.671" fill="#1a3b56" d="M 160.5,36.5 C 162.527,36.3379 164.527,36.5045 166.5,37C 167.337,38.0113 167.67,39.1779 167.5,40.5C 166.07,40.5792 164.736,40.2458 163.5,39.5C 162.3,41.107 162.8,42.107 165,42.5C 167.047,41.3906 169.213,40.7239 171.5,40.5C 171.34,42.1992 171.506,43.8659 172,45.5C 172.837,43.9926 174.004,43.4926 175.5,44C 176.729,45.5292 178.229,46.6959 180,47.5C 180.483,48.448 180.649,49.448 180.5,50.5C 182.912,50.244 184.579,51.244 185.5,53.5C 186.242,55.1082 186.409,56.7749 186,58.5C 187.635,57.1514 189.135,57.3181 190.5,59C 188.651,60.093 186.984,61.4263 185.5,63C 186,63.5 186.5,64 187,64.5C 188.922,61.9108 191.089,61.4108 193.5,63C 192.833,63.6667 192.167,64.3333 191.5,65C 195.33,65.407 195.997,66.7403 193.5,69C 194.793,69.49 196.127,69.6567 197.5,69.5C 197.714,71.1439 197.38,72.6439 196.5,74C 201.53,75.7737 201.196,77.4404 195.5,79C 196.337,80.0113 196.67,81.1779 196.5,82.5C 195.325,82.719 194.325,82.3857 193.5,81.5C 192.252,78.9296 191.252,76.2629 190.5,73.5C 189.167,72.8333 188.167,71.8333 187.5,70.5C 188.833,69.3801 189.333,68.0468 189,66.5C 187.667,67.8333 186.333,67.8333 185,66.5C 184.385,64.8839 183.385,63.5505 182,62.5C 181.51,61.2068 181.343,59.8734 181.5,58.5C 180.167,58.5 178.833,58.5 177.5,58.5C 176.956,56.4205 176.122,54.4205 175,52.5C 173.187,53.6091 172.354,52.9424 172.5,50.5C 171.448,50.6495 170.448,50.4828 169.5,50C 166.84,47.1105 163.673,44.9438 160,43.5C 158.66,41.2341 158.827,38.9007 160.5,36.5 Z"/></g>
<g><path style="opacity:0.631" fill="#1d3e58" d="M 72.5,37.5 C 74.5844,39.8633 77.2511,41.53 80.5,42.5C 78.4648,45.1153 75.9648,46.1153 73,45.5C 68.856,50.0002 64.6893,54.5002 60.5,59C 57.2069,59.2549 56.0403,60.7549 57,63.5C 55.8289,64.8932 54.3289,65.7265 52.5,66C 52.9574,66.414 53.2907,66.914 53.5,67.5C 51.7073,70.2511 50.0406,73.0844 48.5,76C 46.4971,75.5808 44.4971,74.7474 42.5,73.5C 41.3192,71.8647 41.3192,70.198 42.5,68.5C 45.0103,64.1522 48.0103,60.1522 51.5,56.5C 53.0777,55.7022 54.7444,55.2022 56.5,55C 55.239,51.554 56.5723,49.554 60.5,49C 59.1667,48.3333 59.1667,47.6667 60.5,47C 62.6508,47.3868 64.6508,48.0534 66.5,49C 65.1279,47.7581 64.1279,46.2581 63.5,44.5C 65.7817,43.0996 67.2817,43.7663 68,46.5C 68.1805,44.5116 68.0138,42.5116 67.5,40.5C 69.2259,40.8146 70.8925,40.9813 72.5,41C 71.3157,39.8545 71.3157,38.6879 72.5,37.5 Z M 58.5,53.5 C 59.2506,52.4265 60.2506,52.2599 61.5,53C 60.6477,54.7284 59.6477,54.895 58.5,53.5 Z M 48.5,63.5 C 51.0009,63.5109 51.1676,64.1776 49,65.5C 48.5357,64.9056 48.369,64.2389 48.5,63.5 Z"/></g>
<g><path style="opacity:1" fill="#193f64" d="M 197.5,112.5 C 187.786,113.831 178.119,115.165 168.5,116.5C 168.389,115.883 168.056,115.383 167.5,115C 163.749,114.934 160.249,114.101 157,112.5C 153.617,113.814 150.117,114.647 146.5,115C 158.558,115.324 159.058,116.824 148,119.5C 144.295,118.035 140.795,116.201 137.5,114C 138.056,113.617 138.389,113.117 138.5,112.5C 145.751,114.437 152.584,113.437 159,109.5C 165.633,113.876 172.799,114.709 180.5,112C 182.327,111.101 183.66,109.767 184.5,108C 183.114,104.609 180.948,101.775 178,99.5C 174.437,103.047 170.604,103.38 166.5,100.5C 164.527,95.7945 165.194,91.6278 168.5,88C 171.993,86.9963 175.159,87.4963 178,89.5C 180.181,86.6558 182.347,83.8224 184.5,81C 181.006,77.0491 176.506,75.2157 171,75.5C 156.75,77.6235 150.416,85.9568 152,100.5C 149.772,102.113 147.272,102.78 144.5,102.5C 138.31,98.0559 137.977,93.2225 143.5,88C 146.146,87.5026 148.813,87.3359 151.5,87.5C 151.862,83.7974 153.529,80.7974 156.5,78.5C 147.68,73.8058 139.514,74.8058 132,81.5C 131.506,79.8659 131.34,78.1992 131.5,76.5C 133.39,76.7035 134.89,76.0368 136,74.5C 134.988,71.659 136.155,70.3256 139.5,70.5C 139.147,72.6348 139.98,73.9681 142,74.5C 145.461,73.7819 148.961,73.2819 152.5,73C 152.957,72.586 153.291,72.086 153.5,71.5C 151.307,68.492 148.307,66.992 144.5,67C 145.025,66.3076 145.692,65.8076 146.5,65.5C 151.456,66.8936 156.289,66.5603 161,64.5C 166.246,68.8173 170.746,68.1507 174.5,62.5C 172.331,60.8148 170.164,59.1482 168,57.5C 167.125,60.2146 165.292,61.5479 162.5,61.5C 162.351,60.448 162.517,59.448 163,58.5C 168.808,56.2841 168.974,54.6175 163.5,53.5C 162.707,50.8737 161.04,49.0404 158.5,48C 154.007,47.8955 149.674,47.0621 145.5,45.5C 143.287,47.27 140.954,47.6034 138.5,46.5C 140.108,45.6816 141.775,45.0149 143.5,44.5C 144.583,43.635 144.749,42.635 144,41.5C 141.376,41.4697 138.709,41.803 136,42.5C 135.682,40.9391 134.849,39.7724 133.5,39C 125.833,38.3333 118.167,38.3333 110.5,39C 105.612,40.9824 100.612,42.649 95.5,44C 95.1667,44.3333 94.8333,44.6667 94.5,45C 95.6721,45.4186 96.6721,46.0853 97.5,47C 97.1667,47.1667 96.8333,47.3333 96.5,47.5C 95.0325,46.3047 93.5325,46.3047 92,47.5C 90.6667,46.8333 89.3333,46.1667 88,45.5C 85.0438,47.0614 81.8771,48.0614 78.5,48.5C 95.1072,37.4765 113.441,33.6432 133.5,37C 172.683,47.0174 194.016,72.1841 197.5,112.5 Z"/></g>
<g><path style="opacity:1" fill="#a3bbcd" d="M 73.5,77.5 C 68.1667,77.5 62.8333,77.5 57.5,77.5C 57.5,88.8333 57.5,100.167 57.5,111.5C 63.8333,111.5 70.1667,111.5 76.5,111.5C 70.021,112.491 63.3543,112.824 56.5,112.5C 56.5,100.5 56.5,88.5 56.5,76.5C 62.358,76.1778 68.0247,76.5111 73.5,77.5 Z"/></g>
<g><path style="opacity:1" fill="#cbdae4" d="M 144.5,102.5 C 142.5,102.5 140.5,102.5 138.5,102.5C 138.589,99.2914 138.256,96.1248 137.5,93C 137.543,89.8209 138.876,87.4876 141.5,86C 144.482,85.502 147.482,85.3354 150.5,85.5C 151.092,82.8728 151.425,80.2062 151.5,77.5C 146.733,77.1908 142.066,77.6908 137.5,79C 136.382,81.346 134.715,83.1794 132.5,84.5C 130.077,83.2882 129.077,81.2882 129.5,78.5C 125.493,77.9963 121.493,77.8297 117.5,78C 115.014,83.9603 113.014,90.127 111.5,96.5C 110.209,96.7373 109.209,96.404 108.5,95.5C 109.117,95.3893 109.617,95.056 110,94.5C 111.509,88.4635 113.009,82.4635 114.5,76.5C 120.167,76.5 125.833,76.5 131.5,76.5C 131.34,78.1992 131.506,79.8659 132,81.5C 139.514,74.8058 147.68,73.8058 156.5,78.5C 153.529,80.7974 151.862,83.7974 151.5,87.5C 148.813,87.3359 146.146,87.5026 143.5,88C 137.977,93.2225 138.31,98.0559 144.5,102.5 Z"/></g>
<g><path style="opacity:0.42" fill="#1b3b58" d="M 197.5,82.5 C 200.044,82.1043 202.211,82.771 204,84.5C 204.336,87.5382 205.169,90.3715 206.5,93C 206.415,94.1074 206.081,95.1074 205.5,96C 207.244,98.6778 208.244,101.678 208.5,105C 207.901,107.177 207.568,109.344 207.5,111.5C 205.571,112.38 203.737,113.38 202,114.5C 198.942,113.676 198.776,112.342 201.5,110.5C 199.829,108.49 199.162,106.157 199.5,103.5C 201.288,103.785 202.955,103.452 204.5,102.5C 202.828,102.613 200.994,102.279 199,101.5C 198.28,99.8876 198.446,98.3876 199.5,97C 197.92,93.7816 196.587,90.4482 195.5,87C 195.519,85.167 196.185,83.667 197.5,82.5 Z M 198.5,85.5 C 199.5,85.5 200.5,85.5 201.5,85.5C 200.754,89.31 199.754,89.31 198.5,85.5 Z M 201.5,91.5 C 203.625,92.3676 203.791,93.3676 202,94.5C 200.317,93.8235 200.15,92.8235 201.5,91.5 Z"/></g>
<g><path style="opacity:0.647" fill="#173954" d="M 38.5,77.5 C 41.1667,77.5 43.8333,77.5 46.5,77.5C 41.7557,88.9448 39.2557,100.945 39,113.5C 36.2258,114.523 33.3925,114.523 30.5,113.5C 30.3903,109.269 31.3903,105.436 33.5,102C 31.9414,99.3583 32.2747,97.025 34.5,95C 33.9186,94.1074 33.5852,93.1074 33.5,92C 34.8599,89.7298 35.5266,87.2298 35.5,84.5C 37.5988,85.2309 39.5988,85.2309 41.5,84.5C 40.1667,82.8333 38.8333,81.1667 37.5,79.5C 37.8627,78.8165 38.1961,78.1499 38.5,77.5 Z M 36.5,90.5 C 39.6741,90.9522 40.0075,91.9522 37.5,93.5C 36.6143,92.675 36.281,91.675 36.5,90.5 Z M 35.5,96.5 C 37.0481,96.8212 37.7148,97.8212 37.5,99.5C 34.7524,99.5983 34.0857,98.5983 35.5,96.5 Z"/></g>
<g><path style="opacity:1" fill="#e3e6e9" d="M 166.5,100.5 C 166.414,101.496 166.748,102.329 167.5,103C 170.167,103.333 172.833,103.667 175.5,104C 172.53,105.153 169.863,106.82 167.5,109C 164.525,109.713 162.025,108.879 160,106.5C 156.722,108.148 153.555,109.981 150.5,112C 145.827,111.837 141.16,111.337 136.5,110.5C 136.241,106.932 134.241,105.599 130.5,106.5C 130.5,108.167 130.5,109.833 130.5,111.5C 127.167,111.5 123.833,111.5 120.5,111.5C 120.666,105.158 120.5,98.8246 120,92.5C 119.333,93.8333 118.667,93.8333 118,92.5C 117.241,95.7846 115.908,98.7846 114,101.5C 113.304,104.478 112.804,107.478 112.5,110.5C 110.167,110.5 107.833,110.5 105.5,110.5C 105.662,108.473 105.495,106.473 105,104.5C 104.578,102.574 103.411,101.574 101.5,101.5C 100.463,100.07 99.7959,98.403 99.5,96.5C 99.0133,95.5266 98.5133,94.5266 98,93.5C 97.5005,99.8246 97.3338,106.158 97.5,112.5C 94.1667,112.5 90.8333,112.5 87.5,112.5C 87.6621,110.473 87.4955,108.473 87,106.5C 86.2828,107.044 85.7828,107.711 85.5,108.5C 83.2872,109.773 80.9538,110.773 78.5,111.5C 77.8333,111.5 77.1667,111.5 76.5,111.5C 70.1667,111.5 63.8333,111.5 57.5,111.5C 57.5,100.167 57.5,88.8333 57.5,77.5C 62.8333,77.5 68.1667,77.5 73.5,77.5C 78.255,77.3728 82.5883,78.7062 86.5,81.5C 87.4519,79.9547 87.7852,78.288 87.5,76.5C 92.8333,76.5 98.1667,76.5 103.5,76.5C 105.363,82.7602 107.03,89.0935 108.5,95.5C 109.209,96.404 110.209,96.7373 111.5,96.5C 113.014,90.127 115.014,83.9603 117.5,78C 121.493,77.8297 125.493,77.9963 129.5,78.5C 129.077,81.2882 130.077,83.2882 132.5,84.5C 134.715,83.1794 136.382,81.346 137.5,79C 142.066,77.6908 146.733,77.1908 151.5,77.5C 151.425,80.2062 151.092,82.8728 150.5,85.5C 147.482,85.3354 144.482,85.502 141.5,86C 138.876,87.4876 137.543,89.8209 137.5,93C 138.256,96.1248 138.589,99.2914 138.5,102.5C 140.5,102.5 142.5,102.5 144.5,102.5C 147.272,102.78 149.772,102.113 152,100.5C 150.416,85.9568 156.75,77.6235 171,75.5C 176.506,75.2157 181.006,77.0491 184.5,81C 182.347,83.8224 180.181,86.6558 178,89.5C 175.159,87.4963 171.993,86.9963 168.5,88C 165.194,91.6278 164.527,95.7945 166.5,100.5 Z"/></g>
<g><path style="opacity:1" fill="#1a3f63" d="M 68.5,87.5 C 78.0519,87.1969 81.0519,91.3636 77.5,100C 74.7935,101.908 71.7935,102.741 68.5,102.5C 68.5,97.5 68.5,92.5 68.5,87.5 Z"/></g>
<g><path style="opacity:1" fill="#d3dee7" d="M 166.5,100.5 C 170.604,103.38 174.437,103.047 178,99.5C 180.948,101.775 183.114,104.609 184.5,108C 183.66,109.767 182.327,111.101 180.5,112C 172.799,114.709 165.633,113.876 159,109.5C 152.584,113.437 145.751,114.437 138.5,112.5C 138.167,112.5 137.833,112.5 137.5,112.5C 135.877,111.221 134.21,109.887 132.5,108.5C 131.571,109.689 131.238,111.022 131.5,112.5C 127.5,112.5 123.5,112.5 119.5,112.5C 120.492,90.4183 118.492,90.4183 113.5,112.5C 110.5,112.5 107.5,112.5 104.5,112.5C 103.123,108.955 102.123,105.288 101.5,101.5C 103.411,101.574 104.578,102.574 105,104.5C 105.495,106.473 105.662,108.473 105.5,110.5C 107.833,110.5 110.167,110.5 112.5,110.5C 112.804,107.478 113.304,104.478 114,101.5C 115.908,98.7846 117.241,95.7846 118,92.5C 118.667,93.8333 119.333,93.8333 120,92.5C 120.5,98.8246 120.666,105.158 120.5,111.5C 123.833,111.5 127.167,111.5 130.5,111.5C 130.5,109.833 130.5,108.167 130.5,106.5C 134.241,105.599 136.241,106.932 136.5,110.5C 141.16,111.337 145.827,111.837 150.5,112C 153.555,109.981 156.722,108.148 160,106.5C 162.025,108.879 164.525,109.713 167.5,109C 169.863,106.82 172.53,105.153 175.5,104C 172.833,103.667 170.167,103.333 167.5,103C 166.748,102.329 166.414,101.496 166.5,100.5 Z"/></g>
<g><path style="opacity:1" fill="#5a788c" d="M 99.5,96.5 C 98.5111,101.975 98.1778,107.642 98.5,113.5C 94.5,113.5 90.5,113.5 86.5,113.5C 86.7845,111.585 86.4511,109.919 85.5,108.5C 85.7828,107.711 86.2828,107.044 87,106.5C 87.4955,108.473 87.6621,110.473 87.5,112.5C 90.8333,112.5 94.1667,112.5 97.5,112.5C 97.3338,106.158 97.5005,99.8246 98,93.5C 98.5133,94.5266 99.0133,95.5266 99.5,96.5 Z"/></g>
<g><path style="opacity:1" fill="#1d4263" d="M 137.5,112.5 C 134.675,112.081 132.509,113.081 131,115.5C 130.667,115.167 130.333,114.833 130,114.5C 129.632,115.91 128.799,116.91 127.5,117.5C 123.584,116.188 119.584,115.188 115.5,114.5C 112.29,115.944 108.957,116.444 105.5,116C 104.663,114.989 104.33,113.822 104.5,112.5C 107.5,112.5 110.5,112.5 113.5,112.5C 118.492,90.4183 120.492,90.4183 119.5,112.5C 123.5,112.5 127.5,112.5 131.5,112.5C 131.238,111.022 131.571,109.689 132.5,108.5C 134.21,109.887 135.877,111.221 137.5,112.5 Z"/></g>
<g><path style="opacity:1" fill="#23455d" d="M 43.5,101.5 C 43.1949,111.221 47.5282,114.888 56.5,112.5C 63.3543,112.824 70.021,112.491 76.5,111.5C 77.1667,111.5 77.8333,111.5 78.5,111.5C 76.1148,113.263 73.4481,114.763 70.5,116C 76.8258,116.985 82.8258,118.985 88.5,122C 89.2524,122.671 89.5858,123.504 89.5,124.5C 74.5552,118.016 58.8886,114.849 42.5,115C 41.9186,114.107 41.5852,113.107 41.5,112C 41.9715,108.323 42.6382,104.823 43.5,101.5 Z"/></g>
<g><path style="opacity:1" fill="#193f62" d="M 99.5,96.5 C 99.7959,98.403 100.463,100.07 101.5,101.5C 102.123,105.288 103.123,108.955 104.5,112.5C 103.265,112.279 102.265,111.612 101.5,110.5C 100.059,113.767 98.0591,116.6 95.5,119C 89.349,120.138 89.6823,121.471 96.5,123C 97.87,124.441 98.87,126.108 99.5,128C 102.351,129.289 105.351,129.789 108.5,129.5C 108.042,124.971 109.042,124.471 111.5,128C 110.115,129.597 109.449,131.43 109.5,133.5C 111.124,133.64 112.29,132.973 113,131.5C 113.334,133.847 113.167,136.181 112.5,138.5C 109.816,136.807 107.149,135.14 104.5,133.5C 99.4373,130.691 94.4373,127.691 89.5,124.5C 89.5858,123.504 89.2524,122.671 88.5,122C 82.8258,118.985 76.8258,116.985 70.5,116C 73.4481,114.763 76.1148,113.263 78.5,111.5C 80.9538,110.773 83.2872,109.773 85.5,108.5C 86.4511,109.919 86.7845,111.585 86.5,113.5C 90.5,113.5 94.5,113.5 98.5,113.5C 98.1778,107.642 98.5111,101.975 99.5,96.5 Z"/></g>
<g><path style="opacity:1" fill="#143d67" d="M 104.5,112.5 C 104.33,113.822 104.663,114.989 105.5,116C 108.957,116.444 112.29,115.944 115.5,114.5C 119.584,115.188 123.584,116.188 127.5,117.5C 128.799,116.91 129.632,115.91 130,114.5C 130.333,114.833 130.667,115.167 131,115.5C 132.509,113.081 134.675,112.081 137.5,112.5C 137.833,112.5 138.167,112.5 138.5,112.5C 138.389,113.117 138.056,113.617 137.5,114C 140.795,116.201 144.295,118.035 148,119.5C 159.058,116.824 158.558,115.324 146.5,115C 150.117,114.647 153.617,113.814 157,112.5C 160.249,114.101 163.749,114.934 167.5,115C 168.056,115.383 168.389,115.883 168.5,116.5C 162.589,117.578 156.922,119.411 151.5,122C 149.527,122.495 147.527,122.662 145.5,122.5C 145.5,123.5 145.5,124.5 145.5,125.5C 141.617,125.882 138.617,127.716 136.5,131C 134.299,131.825 132.466,131.325 131,129.5C 129.173,131.24 129.34,132.907 131.5,134.5C 130.675,135.386 129.675,135.719 128.5,135.5C 128.5,136.5 128.5,137.5 128.5,138.5C 124.167,137.685 121.834,139.352 121.5,143.5C 119.833,143.5 118.167,143.5 116.5,143.5C 116.592,140.6 115.259,138.933 112.5,138.5C 113.167,136.181 113.334,133.847 113,131.5C 112.29,132.973 111.124,133.64 109.5,133.5C 109.449,131.43 110.115,129.597 111.5,128C 109.042,124.471 108.042,124.971 108.5,129.5C 105.351,129.789 102.351,129.289 99.5,128C 98.87,126.108 97.87,124.441 96.5,123C 89.6823,121.471 89.349,120.138 95.5,119C 98.0591,116.6 100.059,113.767 101.5,110.5C 102.265,111.612 103.265,112.279 104.5,112.5 Z"/></g>
<g><path style="opacity:1" fill="#a6d03f" d="M 36.5,118.5 C 41.4068,120.289 46.7401,121.122 52.5,121C 54.958,122.733 54.6247,123.9 51.5,124.5C 50.0357,125.405 48.7024,125.405 47.5,124.5C 39.3478,124.031 31.0145,124.031 22.5,124.5C 22.5,123.167 22.5,121.833 22.5,120.5C 27.2214,119.963 31.888,119.296 36.5,118.5 Z"/></g>
<g><path style="opacity:0.6" fill="#9eba58" d="M 203.5,118.5 C 189.132,119.322 174.798,121.322 160.5,124.5C 163.135,122.672 166.135,121.505 169.5,121C 180.763,119.174 192.096,118.341 203.5,118.5 Z"/></g>
<g><path style="opacity:1" fill="#a6cc4a" d="M 203.5,118.5 C 208.433,119.361 213.433,120.028 218.5,120.5C 218.5,122.5 218.5,124.5 218.5,126.5C 195.134,122.67 172.467,125.17 150.5,134C 146.931,135.942 143.598,138.108 140.5,140.5C 138.147,141.34 136.147,142.674 134.5,144.5C 134.167,144.5 133.833,144.5 133.5,144.5C 132.167,144.5 131.5,143.833 131.5,142.5C 139.022,133.363 148.688,127.363 160.5,124.5C 174.798,121.322 189.132,119.322 203.5,118.5 Z"/></g>
<g><path style="opacity:0.714" fill="#a4c15f" d="M 22.5,120.5 C 22.5,121.833 22.5,123.167 22.5,124.5C 31.0145,124.031 39.3478,124.031 47.5,124.5C 38.8177,124.986 30.1511,125.653 21.5,126.5C 21.2053,124.265 21.5386,122.265 22.5,120.5 Z"/></g>
<g><path style="opacity:1" fill="#a6c757" d="M 36.5,118.5 C 55.3589,117.603 73.3589,120.936 90.5,128.5C 90.44,129.043 90.1067,129.376 89.5,129.5C 80.1944,126.132 70.6944,123.465 61,121.5C 57.2601,121.954 56.7601,123.287 59.5,125.5C 56.6146,125.806 53.9479,125.473 51.5,124.5C 54.6247,123.9 54.958,122.733 52.5,121C 46.7401,121.122 41.4068,120.289 36.5,118.5 Z"/></g>
<g><path style="opacity:1" fill="#a8ce49" d="M 90.5,128.5 C 94.2208,130.354 97.5541,132.687 100.5,135.5C 100.736,137.973 102.069,139.64 104.5,140.5C 104.043,141.298 103.376,141.631 102.5,141.5C 100.833,140.833 99.1667,140.167 97.5,139.5C 85.9469,132.067 73.2802,127.401 59.5,125.5C 56.7601,123.287 57.2601,121.954 61,121.5C 70.6944,123.465 80.1944,126.132 89.5,129.5C 90.1067,129.376 90.44,129.043 90.5,128.5 Z"/></g>
<g><path style="opacity:1" fill="#a8cd4a" d="M 97.5,139.5 C 98.8021,141.822 100.802,143.155 103.5,143.5C 104.262,145.262 105.596,146.262 107.5,146.5C 107.5,146.833 107.5,147.167 107.5,147.5C 108.837,150.687 107.837,151.354 104.5,149.5C 92.4041,142.627 79.4041,138.294 65.5,136.5C 52.7976,134.846 40.1309,135.346 27.5,138C 26.944,138.383 26.6107,138.883 26.5,139.5C 23.1667,139.5 19.8333,139.5 16.5,139.5C 16.281,138.325 16.6143,137.325 17.5,136.5C 19.3361,135.972 21.0028,135.306 22.5,134.5C 48.1111,126.564 73.1111,128.231 97.5,139.5 Z"/></g>
<g><path style="opacity:1" fill="#a8cc4d" d="M 132.5,151.5 C 130.821,151.715 129.821,151.048 129.5,149.5C 129.5,149.167 129.5,148.833 129.5,148.5C 131.404,148.262 132.738,147.262 133.5,145.5C 134.167,145.5 134.5,145.167 134.5,144.5C 137.198,144.155 139.198,142.822 140.5,140.5C 160.392,130.301 181.392,127.134 203.5,131C 209.865,132.175 216.199,133.508 222.5,135C 225.654,136.748 226.321,139.248 224.5,142.5C 214.996,139.947 205.33,138.114 195.5,137C 172.7,134.351 151.7,139.184 132.5,151.5 Z"/></g>
<g><path style="opacity:0.835" fill="#a5c05d" d="M 65.5,136.5 C 52.375,136.077 39.375,137.077 26.5,139.5C 26.6107,138.883 26.944,138.383 27.5,138C 40.1309,135.346 52.7976,134.846 65.5,136.5 Z"/></g>
<g><path style="opacity:1" fill="#29455a" d="M 197.5,112.5 C 197.5,113.5 197.5,114.5 197.5,115.5C 165.569,113.811 139.569,125.144 119.5,149.5C 114.478,144.146 109.478,138.813 104.5,133.5C 107.149,135.14 109.816,136.807 112.5,138.5C 115.259,138.933 116.592,140.6 116.5,143.5C 118.167,143.5 119.833,143.5 121.5,143.5C 121.834,139.352 124.167,137.685 128.5,138.5C 128.5,137.5 128.5,136.5 128.5,135.5C 129.675,135.719 130.675,135.386 131.5,134.5C 129.34,132.907 129.173,131.24 131,129.5C 132.466,131.325 134.299,131.825 136.5,131C 138.617,127.716 141.617,125.882 145.5,125.5C 145.5,124.5 145.5,123.5 145.5,122.5C 147.527,122.662 149.527,122.495 151.5,122C 156.922,119.411 162.589,117.578 168.5,116.5C 178.119,115.165 187.786,113.831 197.5,112.5 Z"/></g>
<g><path style="opacity:1" fill="#a6c066" d="M 22.5,134.5 C 21.0028,135.306 19.3361,135.972 17.5,136.5C 16.6143,137.325 16.281,138.325 16.5,139.5C 19.8333,139.5 23.1667,139.5 26.5,139.5C 22.8002,141.281 18.8002,142.281 14.5,142.5C 13.5189,136.308 16.1855,133.641 22.5,134.5 Z"/></g>
<g><path style="opacity:1" fill="#a8be62" d="M 100.5,135.5 C 107.312,140.147 112.979,145.98 117.5,153C 117.167,153.167 116.833,153.333 116.5,153.5C 114.079,151.066 111.412,149.066 108.5,147.5C 108.5,146.833 108.167,146.5 107.5,146.5C 106.738,144.738 105.404,143.738 103.5,143.5C 103.167,142.833 102.833,142.167 102.5,141.5C 103.376,141.631 104.043,141.298 104.5,140.5C 102.069,139.64 100.736,137.973 100.5,135.5 Z"/></g>
<g><path style="opacity:1" fill="#29475c" d="M 226.5,146.5 C 219.232,146.911 211.898,146.077 204.5,144C 189.398,142.329 174.398,142.163 159.5,143.5C 162.577,142.144 165.91,141.311 169.5,141C 188.842,139.502 207.842,141.335 226.5,146.5 Z"/></g>
<g><path style="opacity:1" fill="#284659" d="M 88.5,145.5 C 78.6759,143.401 68.6759,142.401 58.5,142.5C 44.0358,142.811 29.7024,144.145 15.5,146.5C 33.3137,140.985 51.6471,139.152 70.5,141C 76.7783,141.903 82.7783,143.403 88.5,145.5 Z"/></g>
<g><path style="opacity:1" fill="#173e63" d="M 88.5,145.5 C 88.67,146.822 88.3366,147.989 87.5,149C 93.9801,148.826 99.6468,150.826 104.5,155C 105.793,155.49 107.127,155.657 108.5,155.5C 110.795,157.486 112.461,159.986 113.5,163C 121.344,167.249 126.678,165.082 129.5,156.5C 138.504,149.833 148.504,145.5 159.5,143.5C 174.398,142.163 189.398,142.329 204.5,144C 211.898,146.077 219.232,146.911 226.5,146.5C 230.274,148.487 231.274,151.487 229.5,155.5C 228.264,156.357 226.931,157.023 225.5,157.5C 202.784,150.328 179.784,149.161 156.5,154C 150.166,156.165 144.166,158.998 138.5,162.5C 137.614,163.325 137.281,164.325 137.5,165.5C 135.247,167.941 132.58,169.941 129.5,171.5C 128.614,172.325 128.281,173.325 128.5,174.5C 124.537,175.44 120.537,175.607 116.5,175C 113.648,173.409 110.648,172.076 107.5,171C 104.696,167.227 102.529,163.06 101,158.5C 100.667,158.833 100.333,159.167 100,159.5C 98.6012,158.773 97.1012,158.273 95.5,158C 96.8333,157 98.1667,156 99.5,155C 98.2513,153.176 97.0847,153.343 96,155.5C 85.9656,152.771 75.6323,150.438 65,148.5C 60.0036,149.034 55.1702,149.7 50.5,150.5C 38.1734,151.415 26.0067,153.749 14,157.5C 8.77382,155.66 7.60715,152.494 10.5,148C 12.0249,146.991 13.6916,146.491 15.5,146.5C 29.7024,144.145 44.0358,142.811 58.5,142.5C 68.6759,142.401 78.6759,143.401 88.5,145.5 Z M 133.5,145.5 C 132.738,147.262 131.404,148.262 129.5,148.5C 130.262,146.738 131.596,145.738 133.5,145.5 Z M 103.5,143.5 C 105.404,143.738 106.738,144.738 107.5,146.5C 105.596,146.262 104.262,145.262 103.5,143.5 Z M 127.5,150.5 C 127.5,151.833 126.833,152.5 125.5,152.5C 125.833,151.5 126.5,150.833 127.5,150.5 Z"/></g>
<g><path style="opacity:1" fill="#a9b96e" d="M 131.5,142.5 C 131.5,143.833 132.167,144.5 133.5,144.5C 133.5,144.833 133.5,145.167 133.5,145.5C 131.596,145.738 130.262,146.738 129.5,148.5C 128.833,148.5 128.5,148.833 128.5,149.5C 127.833,149.5 127.5,149.833 127.5,150.5C 126.5,150.833 125.833,151.5 125.5,152.5C 122.117,153.754 121.617,152.754 124,149.5C 126.084,146.607 128.584,144.274 131.5,142.5 Z"/></g>
<g><path style="opacity:0.89" fill="#294555" d="M 88.5,145.5 C 95.8677,147.56 102.534,150.893 108.5,155.5C 107.127,155.657 105.793,155.49 104.5,155C 99.6468,150.826 93.9801,148.826 87.5,149C 88.3366,147.989 88.67,146.822 88.5,145.5 Z"/></g>
<g><path style="opacity:0.788" fill="#9cab65" d="M 107.5,147.5 C 107.833,147.5 108.167,147.5 108.5,147.5C 111.129,150.631 113.962,153.631 117,156.5C 117.688,157.332 117.521,157.998 116.5,158.5C 112.458,155.444 108.458,152.444 104.5,149.5C 107.837,151.354 108.837,150.687 107.5,147.5 Z"/></g>
<g><path style="opacity:1" fill="#234359" d="M 137.5,165.5 C 136.141,169.699 133.474,172.865 129.5,175C 121.496,177.436 113.83,176.77 106.5,173C 103.537,170.125 101.704,166.625 101,162.5C 85.4879,153.363 68.6545,149.363 50.5,150.5C 55.1702,149.7 60.0036,149.034 65,148.5C 75.6323,150.438 85.9656,152.771 96,155.5C 97.0847,153.343 98.2513,153.176 99.5,155C 98.1667,156 96.8333,157 95.5,158C 97.1012,158.273 98.6012,158.773 100,159.5C 100.333,159.167 100.667,158.833 101,158.5C 102.529,163.06 104.696,167.227 107.5,171C 110.648,172.076 113.648,173.409 116.5,175C 120.537,175.607 124.537,175.44 128.5,174.5C 128.281,173.325 128.614,172.325 129.5,171.5C 132.58,169.941 135.247,167.941 137.5,165.5 Z"/></g>
<g><path style="opacity:0.796" fill="#9fab71" d="M 128.5,149.5 C 128.833,149.5 129.167,149.5 129.5,149.5C 129.821,151.048 130.821,151.715 132.5,151.5C 129.312,153.69 126.145,156.024 123,158.5C 122.333,157.5 122.333,156.5 123,155.5C 124.045,154.627 124.878,153.627 125.5,152.5C 126.833,152.5 127.5,151.833 127.5,150.5C 128.167,150.5 128.5,150.167 128.5,149.5 Z"/></g>
<g><path style="opacity:1" fill="#a8c45d" d="M 180.5,161.5 C 180.5,159.5 180.5,157.5 180.5,155.5C 173.189,156.386 165.856,157.053 158.5,157.5C 166.825,154.786 175.491,153.452 184.5,153.5C 184.47,156.852 183.137,159.518 180.5,161.5 Z"/></g>
<g><path style="opacity:1" fill="#a8c757" d="M 91.5,161.5 C 84.9667,161.059 78.6333,159.726 72.5,157.5C 67.8804,156.507 63.2137,156.173 58.5,156.5C 58.6287,158.216 58.962,159.883 59.5,161.5C 56.9033,160.068 55.2367,157.901 54.5,155C 56.116,153.923 57.9493,153.423 60,153.5C 71.2263,153.838 81.7263,156.505 91.5,161.5 Z"/></g>
<g><path style="opacity:1" fill="#a4d23d" d="M 180.5,161.5 C 179.396,163.389 178.063,165.055 176.5,166.5C 174.146,167.013 172.146,168.179 170.5,170C 169.402,170.77 169.402,171.603 170.5,172.5C 168.882,174.316 166.882,175.649 164.5,176.5C 160.666,177.882 156.999,179.715 153.5,182C 151.527,182.495 149.527,182.662 147.5,182.5C 147.5,183.5 147.5,184.5 147.5,185.5C 142.23,186.653 136.897,187.487 131.5,188C 129.277,188.566 127.277,189.4 125.5,190.5C 125.5,191.167 125.167,191.5 124.5,191.5C 112.924,189.242 101.257,186.908 89.5,184.5C 88.6851,183.163 87.5185,182.163 86,181.5C 85.5172,180.552 85.3505,179.552 85.5,178.5C 82.4318,178.453 79.4318,177.953 76.5,177C 73.9557,175.437 73.9557,173.937 76.5,172.5C 74.2338,171.686 71.9005,171.186 69.5,171C 67.8863,168.873 65.8863,167.373 63.5,166.5C 61.4131,165.415 60.0798,163.749 59.5,161.5C 58.962,159.883 58.6287,158.216 58.5,156.5C 63.2137,156.173 67.8804,156.507 72.5,157.5C 78.6333,159.726 84.9667,161.059 91.5,161.5C 93.4276,163.247 95.5943,164.913 98,166.5C 98.498,169.482 98.6646,172.482 98.5,175.5C 100.167,175.5 101.833,175.5 103.5,175.5C 103.286,177.144 103.62,178.644 104.5,180C 111.804,181.203 119.137,181.537 126.5,181C 127.056,180.617 127.389,180.117 127.5,179.5C 127.833,179.5 128.167,179.5 128.5,179.5C 133.982,178.244 138.982,176.244 143.5,173.5C 143.452,170.708 144.785,168.875 147.5,168C 146.692,167.692 146.025,167.192 145.5,166.5C 146.844,164.471 148.177,162.471 149.5,160.5C 152.084,158.528 155.084,157.528 158.5,157.5C 165.856,157.053 173.189,156.386 180.5,155.5C 180.5,157.5 180.5,159.5 180.5,161.5 Z"/></g>
<g><path style="opacity:1" fill="#a5c94d" d="M 149.5,160.5 C 148.177,162.471 146.844,164.471 145.5,166.5C 146.025,167.192 146.692,167.692 147.5,168C 144.785,168.875 143.452,170.708 143.5,173.5C 138.982,176.244 133.982,178.244 128.5,179.5C 134.89,175.77 139.557,170.437 142.5,163.5C 144.739,162.212 147.072,161.212 149.5,160.5 Z"/></g>
<g><path style="opacity:0.259" fill="#9db665" d="M 176.5,166.5 C 174.833,168.833 172.833,170.833 170.5,172.5C 169.402,171.603 169.402,170.77 170.5,170C 172.146,168.179 174.146,167.013 176.5,166.5 Z"/></g>
<g><path style="opacity:1" fill="#a4c856" d="M 63.5,166.5 C 65.8863,167.373 67.8863,168.873 69.5,171C 71.9005,171.186 74.2338,171.686 76.5,172.5C 73.9557,173.937 73.9557,175.437 76.5,177C 79.4318,177.953 82.4318,178.453 85.5,178.5C 85.3505,179.552 85.5172,180.552 86,181.5C 87.5185,182.163 88.6851,183.163 89.5,184.5C 78.9282,181.263 70.2615,175.263 63.5,166.5 Z"/></g>
<g><path style="opacity:1" fill="#a6c654" d="M 91.5,161.5 C 96.6183,162.119 99.6183,164.952 100.5,170C 107.302,179.213 116.302,182.379 127.5,179.5C 127.389,180.117 127.056,180.617 126.5,181C 119.137,181.537 111.804,181.203 104.5,180C 103.62,178.644 103.286,177.144 103.5,175.5C 101.833,175.5 100.167,175.5 98.5,175.5C 98.6646,172.482 98.498,169.482 98,166.5C 95.5943,164.913 93.4276,163.247 91.5,161.5 Z"/></g>
<g><path style="opacity:0.788" fill="#1e3e55" d="M 171.5,174.5 C 173.638,174.703 175.305,175.703 176.5,177.5C 177.868,182.992 175.534,185.826 169.5,186C 168.167,186.667 168.167,187.333 169.5,188C 167.366,190.098 165.032,190.931 162.5,190.5C 161.614,191.325 161.281,192.325 161.5,193.5C 159.248,194.333 157.081,194.333 155,193.5C 154.716,195.886 153.716,196.552 152,195.5C 150.364,197.55 148.198,198.55 145.5,198.5C 145.276,196.213 144.609,194.047 143.5,192C 144.596,189.853 146.096,189.353 148,190.5C 151.405,187.135 155.571,185.302 160.5,185C 159.476,183.633 159.976,182.8 162,182.5C 163.477,183.444 164.477,184.777 165,186.5C 163.599,179.03 165.933,177.697 172,182.5C 172.5,182 173,181.5 173.5,181C 169.099,179.963 168.432,177.796 171.5,174.5 Z"/></g>
<g><path style="opacity:1" fill="#a6c856" d="M 164.5,176.5 C 153.272,185.574 140.272,190.241 125.5,190.5C 127.277,189.4 129.277,188.566 131.5,188C 136.897,187.487 142.23,186.653 147.5,185.5C 147.5,184.5 147.5,183.5 147.5,182.5C 149.527,182.662 151.527,182.495 153.5,182C 156.999,179.715 160.666,177.882 164.5,176.5 Z"/></g>
<g><path style="opacity:1" fill="#a4c455" d="M 89.5,184.5 C 101.257,186.908 112.924,189.242 124.5,191.5C 116.436,191.325 108.436,190.492 100.5,189C 96.5263,188.006 92.8597,186.506 89.5,184.5 Z"/></g>
<g><path style="opacity:0.365" fill="#1d3b52" d="M 64.5,175.5 C 68.2407,174.599 70.2407,175.932 70.5,179.5C 73.5993,179.092 75.9326,180.259 77.5,183C 78.448,183.483 79.448,183.649 80.5,183.5C 80.528,185.582 79.8613,187.416 78.5,189C 79,189.5 79.5,190 80,190.5C 81.1667,188.833 82.3333,187.167 83.5,185.5C 86.7155,187.204 90.0488,188.704 93.5,190C 94.8932,191.171 95.7265,192.671 96,194.5C 97.0195,193.313 98.1861,192.313 99.5,191.5C 101.015,193.547 101.849,195.881 102,198.5C 103.094,191.786 106.094,190.786 111,195.5C 113.041,194.577 115.208,194.244 117.5,194.5C 117.5,197.5 117.5,200.5 117.5,203.5C 114.495,203.747 111.995,202.747 110,200.5C 109.261,201.574 108.261,202.241 107,202.5C 103.408,202.268 100.408,200.935 98,198.5C 95.8635,200.125 94.1968,199.792 93,197.5C 91.3963,198.649 89.7297,198.649 88,197.5C 83.7864,195.644 79.6197,193.644 75.5,191.5C 74.7492,190.624 74.2492,189.624 74,188.5C 70.7052,189.424 68.5386,188.09 67.5,184.5C 65.8917,183.682 64.2251,183.015 62.5,182.5C 61.6143,181.675 61.281,180.675 61.5,179.5C 62.5,179.5 63.5,179.5 64.5,179.5C 64.5,178.167 64.5,176.833 64.5,175.5 Z M 106.5,196.5 C 109.012,197.216 109.012,198.216 106.5,199.5C 105.438,198.575 105.438,197.575 106.5,196.5 Z M 71.5,182.5 C 73.0481,182.821 73.7148,183.821 73.5,185.5C 70.7524,185.598 70.0857,184.598 71.5,182.5 Z"/></g>
<g><path style="opacity:0.714" fill="#16354d" d="M 133.5,192.5 C 135.144,192.286 136.644,192.62 138,193.5C 138.567,196.168 139.067,198.834 139.5,201.5C 137.533,201.261 135.699,201.594 134,202.5C 132.956,201.377 132.29,200.044 132,198.5C 131.691,199.766 131.191,200.933 130.5,202C 128.527,202.495 126.527,202.662 124.5,202.5C 123.908,199.873 123.575,197.206 123.5,194.5C 126.187,194.664 128.854,194.497 131.5,194C 132.416,193.722 133.082,193.222 133.5,192.5 Z M 127.5,196.5 C 129.332,197.14 129.665,198.14 128.5,199.5C 127.614,198.675 127.281,197.675 127.5,196.5 Z"/></g>
</svg>
