<svg xmlns="http://www.w3.org/2000/svg" width="102.84" height="46.619" viewBox="0 0 102.84 46.619"><g id="Grupo_554" data-name="Grupo 554" transform="translate(23311 23827.582)"><path id="Caminho_1" data-name="Caminho 1" d="M116.252,0,110.36,0C63.5,31.129,134.373,4.768,98.209,30.316h14.007C140.973-.383,75.4,26.363,116.252,0M85.584,38.615C81.765,41,77.4,43.652,72.378,46.621l22-.005c3.526-2.927,6.591-5.578,9.275-8Zm26.631-8.3-8.564,8.3H85.584l12.624-8.3Z" transform="translate(-23359.629 -23827.584)" fill="#ff4853" fill-rule="evenodd"></path><path id="Caminho_2" data-name="Caminho 2" d="M0,20.633H5.553v11.7a4.111,4.111,0,0,0,.837,2.685A3.756,3.756,0,0,0,9.2,36.038c2.233,0,3.341-1.178,3.347-3.53l.032-11.875h3.015v12.23a6.019,6.019,0,0,1-2.027,4.816A7.765,7.765,0,0,1,7.74,39.487c-2.827-.09-4.237-.608-5.6-1.98A7.67,7.67,0,0,1,0,31.911ZM18.541,39.32V24.081c0-2.41,1.226-3.7,3.154-3.7a3.871,3.871,0,0,1,2.169.56,5.983,5.983,0,0,1,1.7,1.722l5.816,8.805h.094V20.655h3.046V36.3c0,2.125-.793,3.185-2.146,3.185a2.783,2.783,0,0,1-2.478-1.42L21.682,26.173h-.094V39.32ZM37.7,20.633h5.518V39.32H37.7ZM91.1,20.582H96.59v13.9a3.225,3.225,0,0,0,.377,1.932,1.937,1.937,0,0,0,1.467.43h4.406v2.48H95.822a5.321,5.321,0,0,1-3.665-.99A3.778,3.778,0,0,1,91.1,35.44ZM81.576,33.245l-2.25-7.522h-.081l-2.38,7.522ZM71.5,39.32l5.422-15.448A5.615,5.615,0,0,1,78.6,21.214a2.523,2.523,0,0,1,2-.694,2.758,2.758,0,0,1,1.939.6,5.554,5.554,0,0,1,1.638,2.658l5.6,15.545h-5.8l-1.172-3.444H75.928L74.6,39.32Z" transform="translate(-23311 -23841.277)" fill="#4086f3" fill-rule="evenodd"></path></g></svg>